<svg width="55" height="20" viewBox="0 0 55 20" fill="none" xmlns="http://www.w3.org/2000/svg">
<path d="M10.5428 4.04324C10.3503 3.65699 10.0457 3.33842 9.66761 3.0992C9.27319 2.85765 8.80759 2.68844 8.27547 2.58809C7.73402 2.49007 7.10855 2.44572 6.38389 2.43872L3.03831 2.44106C2.69057 2.44572 2.34983 2.71645 2.26814 3.05252L0.017144 12.857C-0.0645408 13.1884 0.153674 13.4662 0.501418 13.4662H2.10361C2.45135 13.4662 2.79559 13.1966 2.87261 12.857L3.42223 10.4765C3.49575 10.1451 3.83882 9.86853 4.19007 9.86853H4.64867C6.60794 9.8662 8.12494 9.46594 9.21485 8.66427C10.3106 7.86142 10.8509 6.80069 10.8509 5.48673C10.8497 4.91143 10.7552 4.42833 10.5428 4.04324ZM7.08754 7.24645C6.60327 7.6012 5.92995 7.77857 5.06176 7.77857H4.66967C4.32076 7.77857 4.10722 7.50318 4.18307 7.1671L4.66501 5.08531C4.73269 4.75157 5.08393 4.475 5.42818 4.47734L5.95329 4.47384C6.56593 4.47384 7.03386 4.58003 7.3466 4.78541C7.65584 4.98845 7.81104 5.31169 7.8087 5.73995C7.81804 6.3911 7.56948 6.89171 7.08754 7.24645Z" fill="#858FA4"/>
<path d="M18.2683 5.44495C17.6638 5.10421 16.7093 4.93384 15.4046 4.93384C14.7593 4.93384 14.1164 4.98402 13.4664 5.08437C12.9868 5.15789 12.9401 5.17189 12.6449 5.23607C12.0357 5.3691 11.94 5.97707 11.94 5.97707L11.744 6.78341C11.6331 7.29803 11.9295 7.27819 12.0532 7.23501C12.3193 7.15566 12.4675 7.07398 13.0113 6.95262C13.5306 6.83476 14.0778 6.74607 14.5119 6.75191C15.1526 6.75191 15.6427 6.81959 15.9694 6.95729C16.2915 7.09732 16.4525 7.3377 16.4525 7.68545L16.4245 7.91183L16.1935 8.0542C15.2844 8.11138 14.6275 8.19539 13.8305 8.31092C13.051 8.41944 12.3671 8.60965 11.7988 8.86988C11.1885 9.13827 10.7358 9.49885 10.4195 9.95745C10.1138 10.4184 9.96094 10.9773 9.96094 11.6332C9.96094 12.2505 10.1827 12.7604 10.6132 13.1548C11.0462 13.5422 11.618 13.7313 12.3018 13.7313C12.7347 13.729 13.0696 13.6951 13.3077 13.6379L14.0837 13.3707L14.7407 13.0066L15.3451 12.6075L15.3533 12.6192L15.2926 12.8759L15.2891 12.8864V12.8888C15.2238 13.2015 15.4128 13.4582 15.7174 13.4886L15.7232 13.4956H15.7512H16.98H17.211L17.232 13.4862C17.5518 13.4489 17.8517 13.1922 17.9217 12.8864L19.0898 7.83015L19.1505 7.41822L19.1785 7.03197C19.1831 6.31548 18.8739 5.78453 18.2683 5.44495ZM15.6847 11.1302L15.435 11.4593L14.8048 11.7849C14.5084 11.905 14.2272 11.9657 13.967 11.9657C13.5726 11.9657 13.2633 11.9085 13.0545 11.7919L12.7452 11.1909C12.7452 10.8653 12.8199 10.6074 12.9798 10.4091L13.6589 9.94695C13.9495 9.84893 14.3042 9.76607 14.715 9.7089C15.0814 9.66338 15.8049 9.58053 15.8994 9.5782L16.0103 9.77308C15.9881 9.88393 15.7827 10.7428 15.6847 11.1302Z" fill="#858FA4"/>
<path d="M47.3698 5.45173C46.7619 5.11099 45.8085 4.93945 44.5074 4.93945C43.8621 4.93945 43.2179 4.98963 42.5703 5.09349C42.0895 5.1635 42.0417 5.17867 41.7453 5.24169C41.1373 5.37355 41.0428 5.98385 41.0428 5.98385L40.8467 6.78903C40.737 7.30364 41.0264 7.2803 41.1618 7.24063C41.429 7.16128 41.5726 7.08309 42.1117 6.95707C42.6286 6.84037 43.1806 6.75402 43.6158 6.75636C44.2541 6.75636 44.7443 6.8252 45.0698 6.9629C45.3942 7.10293 45.5529 7.34565 45.5529 7.6899L45.5284 7.91511L45.2997 8.06098C44.3813 8.11582 43.7232 8.19984 42.9344 8.31537C42.1572 8.42389 41.471 8.61293 40.9016 8.87432C40.2936 9.14388 39.835 9.50446 39.5223 9.96423C39.213 10.4252 39.0625 10.983 39.0625 11.6329C39.0625 12.2549 39.2819 12.7649 39.7183 13.1569C40.1536 13.5432 40.7195 13.7369 41.4034 13.7369C41.8339 13.7322 42.1689 13.7042 42.4081 13.6424L43.1817 13.3787L43.8446 13.0146L44.4444 12.6108L44.4549 12.6237L44.4 12.8827L44.3942 12.8874L44.3965 12.892C44.3242 13.2048 44.5144 13.4638 44.8224 13.4918L44.8248 13.4977H44.8528C45.0547 13.4977 45.7525 13.4977 46.0851 13.4977H46.3114L46.3359 13.4895C46.6522 13.451 46.9509 13.1943 47.0174 12.885L48.189 7.83576L48.2509 7.4215L48.2847 7.03408C48.2859 6.31993 47.9801 5.79131 47.3698 5.45173ZM44.7921 11.137L44.5319 11.4696L43.9076 11.7928C43.6112 11.9118 43.3288 11.9737 43.0732 11.9737C42.666 11.9737 42.3649 11.9153 42.1619 11.7986L41.8491 11.2C41.8491 10.8733 41.925 10.6177 42.0778 10.4158C42.233 10.2256 42.4699 10.0693 42.764 9.9549C43.0511 9.85687 43.4058 9.77752 43.8189 9.71801C44.183 9.6725 44.9041 9.58731 44.9975 9.58615L45.1107 9.78102C45.0943 9.89188 44.8878 10.7472 44.7921 11.137Z" fill="#858FA4"/>
<path d="M39.6413 4.07957C39.4406 3.69098 39.1396 3.37708 38.7591 3.13202C38.3694 2.8893 37.9073 2.71893 37.367 2.62091C36.8361 2.52639 36.2024 2.47504 35.4824 2.47388L32.1322 2.47621C31.7833 2.48204 31.4484 2.75277 31.3678 3.08535L29.1145 12.8945C29.0328 13.2271 29.2569 13.5025 29.5976 13.5025L31.2021 13.5002C31.5429 13.5025 31.8918 13.2294 31.9723 12.8933L32.5149 10.5117C32.5943 10.1802 32.9385 9.90135 33.2851 9.90369H33.7437C35.7053 9.90369 37.2258 9.49993 38.3204 8.70059C39.4021 7.89191 39.9494 6.83351 39.9494 5.51838C39.9436 4.94542 39.8444 4.46115 39.6413 4.07957ZM36.1861 7.28744C35.703 7.63519 35.0285 7.81256 34.165 7.81256H33.7659C33.4216 7.81606 33.1987 7.536 33.2758 7.20226L33.7612 5.12396C33.8324 4.79139 34.1801 4.5125 34.5267 4.516L35.046 4.51249C35.6621 4.516 36.1242 4.61752 36.4393 4.8229C36.7532 5.02827 36.9014 5.35035 36.9049 5.77744C36.9084 6.42859 36.6668 6.93036 36.1861 7.28744Z" fill="#858FA4"/>
<path d="M53.3779 3.16347C53.4514 2.82857 53.2414 2.55667 52.8971 2.56134H51.4618C51.1677 2.56134 50.9028 2.77955 50.7733 3.04795L50.694 3.17164L50.6216 3.48904L48.6157 12.6074L48.5503 12.8875L48.5527 12.8945C48.4861 13.1944 48.6705 13.4207 48.9553 13.4639L48.9798 13.4978H50.4699C50.7617 13.4978 51.0359 13.276 51.1607 13.003L51.2378 12.8863L53.3826 3.16464L53.3779 3.16347Z" fill="#858FA4"/>
<path d="M29.1544 5.05628C28.7752 5.06095 27.2337 5.05628 27.2337 5.05628C26.8883 5.05628 26.4448 5.33518 26.2255 5.66775C26.2255 5.66775 23.9313 9.60496 23.7084 10.0005L23.4423 9.99704L22.7282 5.69459C22.6488 5.35618 22.2953 5.06679 21.8553 5.06679L20.42 5.06912C20.0746 5.06912 19.8622 5.34452 19.9404 5.68059C19.9404 5.68059 21.0303 11.8828 21.2485 13.3426C21.3501 14.1478 21.2357 14.2913 21.2357 14.2913L19.8167 16.7629C19.6067 17.0989 19.7199 17.3732 20.0641 17.3732L21.7235 17.3708C22.0689 17.3708 22.5228 17.0989 22.7282 16.7617L29.1113 5.96532C29.1113 5.96649 29.7251 5.04345 29.1544 5.05628Z" fill="#858FA4"/>
</svg>
