<svg width="40" height="40" viewBox="0 0 40 40" fill="none" xmlns="http://www.w3.org/2000/svg">
<path d="M40 20.0001C40 13.484 34.7097 8.12915 28.129 8.12915C25.2903 8.12915 22.7097 9.09689 20.6452 10.7743C22.1935 12.2582 23.4194 14.1292 24 16.2582H23.0323C22.3871 14.3872 21.3548 12.7098 19.9355 11.355C18.5161 12.7098 17.4839 14.3872 16.8387 16.2582H15.871C16.5161 14.1292 17.6774 12.2582 19.2258 10.7743C17.1613 9.09689 14.6452 8.12915 11.8065 8.12915C5.29032 8.12915 0 13.484 0 20.0001C0 26.5162 5.29032 31.8711 11.871 31.8711C14.7097 31.8711 17.2903 30.8388 19.2903 29.2259C17.7419 27.7421 16.5806 25.8711 15.9355 23.7421H16.9032C17.5484 25.613 18.5806 27.2904 20 28.6453C21.4194 27.2904 22.5161 25.613 23.0968 23.7421H24.0645C23.4194 25.8711 22.2581 27.7421 20.7097 29.2259C22.7742 30.9033 25.3548 31.8711 28.1935 31.8711C34.7097 31.8711 40 26.5162 40 20.0001Z" fill="#858FA4"/>
<path d="M31.2891 22.7743L32.1278 18.3872H33.16L33.2891 18.8388C33.4826 18.6453 33.8052 18.3872 34.4503 18.3872L34.1278 19.5485C33.8052 19.5485 33.2891 19.484 32.902 20.7743L32.5149 22.7743H31.2891Z" fill="#1A1A25"/>
<path d="M15.481 17.2903H16.6423L16.3842 18.4516H17.0294L16.8358 19.3548H16.2552L15.9326 21.0967C15.8681 21.4193 15.9326 21.7419 16.5777 21.6129L16.4487 22.5806C16.1906 22.7742 15.8681 22.7742 15.5455 22.7742C15.2874 22.7742 14.3842 22.5806 14.5777 21.4193L15.481 17.2903Z" fill="#1A1A25"/>
<path d="M20.6447 20.8388C20.7737 20.1291 21.0963 18.3872 19.0318 18.3872C17.0963 18.3872 16.8382 20.3227 16.8382 20.5808C16.7737 20.8388 16.7737 22.7743 18.8382 22.7743C19.3544 22.7743 20.064 22.7098 20.3866 22.5808L20.5802 21.6775C20.3866 21.742 19.7415 21.8066 19.2253 21.8066C18.7737 21.8066 17.9995 21.8066 18.1286 20.8388H20.6447Z" fill="#1A1A25"/>
<path d="M14.3235 19.4193L14.5815 18.5161C14.0009 18.3225 13.5493 18.3225 13.4202 18.3225C13.2267 18.3225 11.8073 18.3225 11.6138 19.3548C11.4202 20.1935 11.7428 20.5161 12.0009 20.6451C12.4525 20.8386 12.7106 21.0322 12.9686 21.1612C13.2912 21.2903 13.2267 21.8064 12.8396 21.8064C12.646 21.8064 11.8718 21.8709 11.2912 21.6773L11.0977 22.5806C11.6783 22.7096 12.0654 22.7096 12.517 22.7096C12.8396 22.7096 14.2589 22.7741 14.4525 21.4838C14.5815 20.8386 14.2589 20.5806 14.0654 20.387C13.8073 20.258 13.4848 19.9999 13.2267 19.9354C12.9686 19.8064 12.7751 19.4193 13.2267 19.2903C13.4202 19.3548 14.0009 19.3548 14.3235 19.4193Z" fill="#1A1A25"/>
<path d="M6.57964 22.7742L7.61189 17.4839H5.6119L4.19254 20.7097L3.93448 17.4839H2.06351L1.03125 22.7742H2.19254L2.96673 18.9678L3.28931 22.7742H4.38609L6.06351 19.0323L5.35383 22.7742H6.57964Z" fill="#1A1A25"/>
<path d="M7.93298 18.5161L7.73943 19.4838C8.06201 19.4838 8.8362 19.3548 9.2233 19.3548C9.61039 19.3548 10.1265 19.2903 9.93297 19.9354C9.61039 19.9354 7.48136 19.6129 7.15878 21.4838C7.02975 22.3871 7.80394 22.8387 8.38459 22.8387C8.96523 22.8387 9.15878 22.7096 9.35233 22.5806L9.48136 22.8387H10.5781L11.0297 20.4516C11.1588 19.8709 11.3523 18.4516 9.35233 18.4516C9.09427 18.387 8.70717 18.387 7.93298 18.5161Z" fill="#1A1A25"/>
<path d="M27.226 18.7097C26.9035 18.5161 26.7099 18.5161 26.3228 18.5161C25.9357 18.5161 25.0325 18.9032 24.9035 19.9355C24.7099 21.2258 25.5486 21.8065 26.7744 21.4194L27.097 22.5161C26.7099 22.7097 26.3228 22.7742 25.6777 22.7742C24.4519 22.7742 23.097 21.6774 23.6777 19.4194C24.1293 17.8065 25.5486 17.1613 26.3873 17.2258C27.3551 17.2903 27.7422 17.6129 28.0002 17.9355L27.226 18.7097Z" fill="#1A1A25"/>
<path d="M37.3537 18.9032C37.0956 18.7097 36.9666 18.3871 36.4505 18.3871C35.8053 18.3871 34.7731 18.2581 34.1924 20.2581C33.8053 21.6129 34.5795 22.7742 35.4182 22.7742C35.8053 22.7742 36.1924 22.5807 36.4505 22.4516L36.5795 22.7742H37.8698L38.9021 17.2258H37.6763L37.3537 18.9032Z" fill="#1A1A25"/>
<path d="M28.0658 18.5161L27.8722 19.4838C28.1948 19.4838 28.969 19.3548 29.3561 19.3548C29.7432 19.3548 30.1948 19.2903 30.0658 19.9354C29.7432 19.9354 27.6142 19.6129 27.2916 21.4838C27.1626 22.3871 27.9368 22.8387 28.5174 22.8387C29.098 22.8387 29.2916 22.7096 29.4851 22.5806L29.6142 22.8387H30.7109L31.1626 20.4516C31.2916 19.8709 31.4851 18.4516 29.4851 18.4516C29.2916 18.387 28.84 18.387 28.0658 18.5161Z" fill="#1A1A25"/>
<path d="M18.1289 20H19.6128C19.6773 19.5484 19.5483 19.2258 19.0966 19.2258C18.5805 19.2258 18.2579 19.4839 18.1289 20Z" fill="#858FA4"/>
<path d="M9.74253 20.8387C9.54899 20.8387 9.09737 20.7096 8.71028 20.9677C8.32318 21.2257 8.19415 21.6774 8.64576 21.8064C9.03286 21.9354 9.54899 21.6774 9.67802 21.2903L9.74253 20.8387Z" fill="#858FA4"/>
<path d="M36.967 20.7097C37.0961 20.3226 37.0316 19.8065 36.9025 19.6129C36.5154 19.0968 35.6767 19.4839 35.4187 20.4516C35.2251 21.0968 35.6122 21.5484 35.9993 21.5484C36.4509 21.5484 36.709 21.2258 36.967 20.7097Z" fill="#858FA4"/>
<path d="M29.9339 20.8387C29.7404 20.8387 29.2888 20.7096 28.9017 20.9677C28.5146 21.2257 28.3856 21.6774 28.8372 21.8064C29.2243 21.9354 29.8049 21.6774 29.8694 21.2903L29.9339 20.8387Z" fill="#858FA4"/>
<path d="M20.6445 22.7743L21.4832 18.4517H22.5155L22.6445 18.9033C22.8381 18.7097 23.1607 18.4517 23.8058 18.4517L23.4832 19.613C23.2252 19.613 22.6445 19.5484 22.2574 20.8388L21.8703 22.8388H20.6445" fill="#1A1A25"/>
<path d="M11.8703 8.12915C6.64453 8.12915 2.19292 11.5485 0.644531 16.2582H15.9994C16.6445 14.1291 17.8058 12.2582 19.3542 10.7743C17.2252 9.16141 14.6445 8.12915 11.8703 8.12915Z" fill="#858FA4"/>
<path d="M19.9991 11.4194C18.5798 12.7743 17.5475 14.3872 16.9023 16.3227H23.0959C22.4507 14.4517 21.4185 12.7743 19.9991 11.4194Z" fill="#858FA4"/>
<path d="M28.1284 8.12915C25.2897 8.12915 22.709 9.09689 20.6445 10.7743C22.1929 12.2582 23.3542 14.1291 23.9994 16.2582H39.3542C37.8703 11.5485 33.4187 8.12915 28.1284 8.12915Z" fill="#858FA4"/>
</svg>
