<svg width="280" height="30" viewBox="0 0 280 30" fill="none" xmlns="http://www.w3.org/2000/svg">
<path d="M167.313 12.013H157.458L159.27 8.69339H169.125L167.313 12.013ZM172.318 4.28005H160.409L151.831 20.0338H148.828L159.218 0.960449H174.113L172.318 4.28005ZM169.867 20.0338H166.864L177.254 0.960449H180.275L169.867 20.0338ZM198.087 4.28005H191.304L182.708 20.0338H179.74L188.318 4.28005H181.483L183.295 0.960449H199.899L198.087 4.28005ZM209.685 18.3836C209.029 19.6116 208.304 20.2256 207.545 20.2256C206.992 20.2256 206.578 19.8419 206.302 19.0743L201.935 6.79374L194.721 20.0338H191.735L201.228 2.61066C201.469 2.15013 201.797 1.76636 202.194 1.44016C202.591 1.11396 202.988 0.960449 203.385 0.960449C203.938 0.960449 204.335 1.28665 204.576 1.93906L208.96 14.2005L216.174 0.960449H219.178L209.685 18.3836ZM231.346 12.013H221.49L223.303 8.69339H233.158L231.346 12.013ZM227.773 20.0338H212.861L223.251 0.960449H238.163L236.351 4.28005H224.459L217.676 16.695H229.585L227.773 20.0338ZM252.782 14.1429C251.798 15.9466 250.435 17.3858 248.674 18.4987C247 19.5157 245.326 20.0338 243.669 20.0338H230.5L232.312 16.695H245.481C246.292 16.695 247.121 16.5031 247.949 16.1001C248.933 15.582 249.641 14.9104 250.107 14.047C250.573 13.2027 250.573 12.5311 250.124 12.0706C249.744 11.6868 249.14 11.4757 248.329 11.4757H240.182C238.681 11.4757 237.68 11.0344 237.162 10.1133C236.627 9.13473 236.8 7.82991 237.68 6.21808C238.56 4.60625 239.785 3.32063 241.408 2.32283C242.927 1.42097 244.428 0.960449 245.913 0.960449H258.926L257.131 4.28005H244.118C243.531 4.28005 242.961 4.45275 242.357 4.81733C241.753 5.16272 241.304 5.64243 240.976 6.23727C240.631 6.8513 240.579 7.33101 240.804 7.65722C241.028 8.00261 241.425 8.15612 241.995 8.15612H250.124C251.798 8.15612 252.903 8.69339 253.438 9.74876C253.99 10.8617 253.783 12.32 252.782 14.1429ZM273.856 14.1429C272.872 15.9466 271.508 17.3858 269.748 18.4987C268.074 19.5157 266.399 20.0338 264.743 20.0338H251.574L253.386 16.695H266.555C267.366 16.695 268.194 16.5031 269.023 16.1001C270.007 15.582 270.714 14.9104 271.18 14.047C271.646 13.2027 271.646 12.5311 271.198 12.0706C270.818 11.6868 270.214 11.4757 269.403 11.4757H261.256C259.755 11.4757 258.754 11.0344 258.236 10.1133C257.701 9.13473 257.873 7.82991 258.754 6.21808C259.634 4.60625 260.859 3.32063 262.482 2.32283C264 1.42097 265.502 0.960449 266.986 0.960449H280L278.205 4.28005H265.191C264.605 4.28005 264.035 4.45275 263.431 4.81733C262.827 5.16272 262.378 5.64243 262.05 6.23727C261.705 6.8513 261.653 7.33101 261.878 7.65722C262.102 8.00261 262.499 8.15612 263.068 8.15612H271.198C272.872 8.15612 273.976 8.69339 274.511 9.74876C275.064 10.8617 274.857 12.32 273.856 14.1429Z" fill="#AF4642"/>
<path d="M68.1575 26.7496C68.1575 27.4787 67.9331 28.0928 67.5189 28.5725C67.0874 29.0714 66.5351 29.3016 65.8793 29.3016H63.3594V24.2935H65.8793C66.5524 24.2935 67.0874 24.5237 67.5189 24.9842C67.9504 25.4256 68.1575 26.0204 68.1575 26.7496ZM67.3636 26.8263C67.3636 26.3466 67.2255 25.9437 66.9493 25.6366C66.6732 25.3296 66.3107 25.1761 65.8793 25.1761H64.1361V28.4382H65.8793C66.3107 28.4382 66.6732 28.2847 66.9493 27.9776C67.2255 27.6898 67.3636 27.306 67.3636 26.8263Z" fill="white"/>
<path d="M73.9228 29.3016H73.1289V24.2935H73.9228V29.3016ZM84.0196 27.7666C84.0196 28.2271 83.8643 28.6109 83.5536 28.8987C83.2775 29.1673 82.915 29.3016 82.4663 29.3016H79.0316V28.4382H82.4663C82.6906 28.4382 82.8805 28.3806 83.0358 28.2655C83.2084 28.1311 83.2947 27.9584 83.2947 27.7282C83.2947 27.5171 83.2084 27.3444 83.0186 27.2101C82.8632 27.1142 82.6906 27.0566 82.4663 27.0566H80.3434C79.9636 27.0566 79.6357 26.9415 79.3768 26.7112C79.0834 26.4426 78.9453 26.0972 78.9453 25.675C78.9453 25.2529 79.0834 24.9267 79.3768 24.658C79.6357 24.4278 79.9636 24.2935 80.3434 24.2935H83.7435V25.1761H80.3434C80.2053 25.1761 80.0672 25.2145 79.9636 25.3104C79.8601 25.4064 79.8083 25.5215 79.8083 25.6942C79.8083 25.8477 79.8601 25.9629 79.9636 26.0588C80.0672 26.1547 80.2053 26.1931 80.3434 26.1931H82.4663C82.915 26.1931 83.2775 26.3274 83.5536 26.6153C83.8643 26.9031 84.0196 27.2869 84.0196 27.7666ZM92.96 25.1761H91.1995V29.3016H90.4229V25.1761H88.6452V24.2935H92.96V25.1761ZM103.005 29.3016H101.831L100.571 27.9009H98.88V27.0374H100.986C101.279 27.0374 101.521 26.9607 101.728 26.8263C101.952 26.6536 102.056 26.4234 102.056 26.1164C102.056 25.4831 101.711 25.1761 100.986 25.1761H98.414V29.3016H97.6373V24.2935H100.865C101.452 24.2935 101.918 24.447 102.263 24.7156C102.677 25.0418 102.884 25.5023 102.884 26.1164C102.884 26.5385 102.763 26.9031 102.522 27.2101C102.315 27.4787 102.004 27.6898 101.624 27.7858L103.005 29.3016ZM108.856 29.3016H108.062V24.2935H108.856V29.3016ZM119.177 27.8433C119.177 28.0544 119.125 28.2655 119.039 28.4573C118.746 29.0138 118.193 29.3016 117.382 29.3016H114.155V24.2935H117.382C118.159 24.2935 118.694 24.5621 119.005 25.0994C119.125 25.3104 119.177 25.5407 119.177 25.7902C119.177 26.1931 119.022 26.5385 118.711 26.8263C119.022 27.095 119.177 27.4404 119.177 27.8433ZM118.418 25.771C118.418 25.5599 118.314 25.4064 118.09 25.2913C117.917 25.2145 117.727 25.1569 117.503 25.1569H114.949V28.419H117.503C117.727 28.419 117.917 28.3806 118.073 28.323C118.314 28.2079 118.418 28.0544 118.418 27.8625C118.418 27.6514 118.314 27.4979 118.073 27.3828C117.9 27.306 117.71 27.2677 117.503 27.2677H115.397V26.4042H117.503C117.727 26.4042 117.917 26.3466 118.09 26.2699C118.314 26.1547 118.418 25.982 118.418 25.771ZM129.274 27.0566C129.274 27.8625 129.05 28.4573 128.618 28.8219C128.221 29.1481 127.669 29.3016 126.909 29.3016H126.65C125.891 29.3016 125.321 29.1481 124.942 28.8219C124.51 28.4573 124.286 27.8625 124.286 27.0566V24.2935H125.08V27.0566C125.08 27.6514 125.27 28.0544 125.632 28.2463C125.874 28.3806 126.305 28.4382 126.909 28.4382C127.427 28.4382 127.79 28.3422 128.031 28.1695C128.325 27.9584 128.48 27.5939 128.48 27.0566V24.2935H129.274V27.0566ZM138.49 25.1761H136.713V29.3016H135.936V25.1761H134.158V24.2935H138.49V25.1761ZM144.152 29.3016H143.358V24.2935H144.152V29.3016ZM155.111 26.7496C155.111 27.4787 154.904 28.0928 154.473 28.5725C154.041 29.0714 153.506 29.3016 152.85 29.3016H151.59C150.935 29.3016 150.399 29.0714 149.968 28.5725C149.536 28.0928 149.329 27.4787 149.329 26.7496C149.329 26.0204 149.536 25.4256 149.951 24.9842C150.382 24.5237 150.935 24.2935 151.59 24.2935H152.85C153.506 24.2935 154.058 24.5237 154.49 24.9842C154.904 25.4256 155.111 26.0204 155.111 26.7496ZM154.335 26.8263C154.335 26.3466 154.197 25.9437 153.92 25.6366C153.644 25.3296 153.282 25.1761 152.85 25.1761H151.59C151.159 25.1761 150.796 25.3296 150.52 25.6366C150.244 25.9437 150.106 26.3466 150.106 26.8263C150.106 27.306 150.244 27.6898 150.52 27.9776C150.796 28.2847 151.159 28.4382 151.59 28.4382H152.85C153.282 28.4382 153.644 28.2847 153.92 27.9776C154.197 27.6898 154.335 27.306 154.335 26.8263ZM164.466 28.8795C164.466 29.1865 164.38 29.3592 164.173 29.3592C164.034 29.3592 163.862 29.2633 163.689 29.0522L160.807 25.8285V29.3016H160.013V24.7348C160.013 24.6197 160.047 24.5237 160.099 24.4278C160.168 24.351 160.237 24.2935 160.358 24.2935C160.496 24.2935 160.652 24.3894 160.807 24.5621L163.689 27.7666V24.2935H164.466V28.8795ZM170.524 28.8795C170.524 29.0138 170.489 29.1289 170.42 29.2057C170.334 29.2825 170.248 29.3208 170.127 29.3208C170.006 29.3208 169.92 29.2825 169.834 29.2057C169.765 29.1289 169.73 29.0138 169.73 28.8795C169.73 28.7452 169.765 28.6492 169.834 28.5725C169.92 28.4765 170.006 28.4382 170.127 28.4382C170.248 28.4382 170.334 28.4765 170.42 28.5725C170.489 28.6492 170.524 28.7452 170.524 28.8795ZM181.087 29.3016H179.913L178.653 27.9009H176.962V27.0374H179.085C179.361 27.0374 179.602 26.9607 179.81 26.8263C180.034 26.6536 180.137 26.4234 180.137 26.1164C180.137 25.4831 179.792 25.1761 179.085 25.1761H176.513V29.3016H175.719V24.2935H178.947C179.533 24.2935 179.999 24.447 180.362 24.7156C180.759 25.0418 180.966 25.5023 180.966 26.1164C180.966 26.5385 180.845 26.9031 180.603 27.2101C180.396 27.4787 180.086 27.6898 179.723 27.7858L181.087 29.3016ZM189.699 27.2101H187.128V26.3274H189.699V27.2101ZM189.906 29.3016H186.023V24.2935H189.906V25.1761H186.8V28.4382H189.906V29.3016ZM199.054 25.1761H197.276V29.3016H196.499V25.1761H194.722V24.2935H199.054V25.1761ZM209.582 29.3016H208.581L207.822 27.9009H205.681L206.165 27.0374H207.356L206.579 25.5983L204.542 29.3016H203.541L205.975 24.7732C206.044 24.658 206.13 24.5621 206.234 24.447C206.372 24.351 206.493 24.2935 206.596 24.2935C206.7 24.2935 206.821 24.3318 206.941 24.447C207.045 24.5429 207.131 24.658 207.2 24.7732L209.582 29.3016ZM215.088 29.3016H214.311V24.2935H215.088V29.3016ZM224.046 29.3016H220.162V24.2935H220.956V28.4382H224.046V29.3016ZM229.638 28.8795C229.638 29.0138 229.603 29.1289 229.517 29.2057C229.448 29.2825 229.344 29.3208 229.223 29.3208C229.12 29.3208 229.016 29.2825 228.947 29.2057C228.861 29.1289 228.826 29.0138 228.826 28.8795C228.826 28.7452 228.861 28.6492 228.947 28.5725C229.016 28.4765 229.12 28.4382 229.223 28.4382C229.344 28.4382 229.448 28.4765 229.517 28.5725C229.603 28.6492 229.638 28.7452 229.638 28.8795ZM239.614 29.3016H237.076C236.421 29.3016 235.868 29.0714 235.454 28.5725C235.023 28.0928 234.798 27.4787 234.798 26.7496C234.798 26.0204 235.023 25.4256 235.437 24.9842C235.868 24.5237 236.403 24.2935 237.076 24.2935H239.614V25.1761H237.076C236.645 25.1761 236.282 25.3296 236.006 25.6366C235.73 25.9437 235.592 26.3466 235.592 26.8263C235.592 27.306 235.73 27.6898 236.006 27.9776C236.282 28.2847 236.645 28.4382 237.076 28.4382H239.614V29.3016ZM248.261 29.3016H244.377V24.2935H245.154V28.4382H248.261V29.3016ZM258.116 27.0566C258.116 27.8625 257.891 28.4573 257.46 28.8219C257.08 29.1481 256.511 29.3016 255.768 29.3016H255.492C254.733 29.3016 254.181 29.1481 253.784 28.8219C253.352 28.4573 253.145 27.8625 253.145 27.0566V24.2935H253.922V27.0566C253.922 27.6514 254.111 28.0544 254.491 28.2463C254.733 28.3806 255.147 28.4382 255.768 28.4382C256.269 28.4382 256.649 28.3422 256.89 28.1695C257.184 27.9584 257.322 27.5939 257.322 27.0566V24.2935H258.116V27.0566ZM268.333 27.8433C268.333 28.0544 268.281 28.2655 268.195 28.4573C267.902 29.0138 267.349 29.3016 266.538 29.3016H263.311V24.2935H266.538C267.315 24.2935 267.85 24.5621 268.161 25.0994C268.281 25.3104 268.333 25.5407 268.333 25.7902C268.333 26.1931 268.178 26.5385 267.867 26.8263C268.178 27.095 268.333 27.4404 268.333 27.8433ZM267.574 25.771C267.574 25.5599 267.47 25.4064 267.246 25.2913C267.073 25.2145 266.883 25.1569 266.659 25.1569H264.105V28.419H266.659C266.883 28.419 267.073 28.3806 267.229 28.323C267.47 28.2079 267.574 28.0544 267.574 27.8625C267.574 27.6514 267.47 27.4979 267.229 27.3828C267.056 27.306 266.866 27.2677 266.659 27.2677H264.553V26.4042H266.659C266.883 26.4042 267.073 26.3466 267.246 26.2699C267.47 26.1547 267.574 25.982 267.574 25.771ZM278.188 27.7666C278.188 28.2271 278.033 28.6109 277.722 28.8987C277.446 29.1673 277.084 29.3016 276.635 29.3016H273.2V28.4382H276.635C276.859 28.4382 277.049 28.3806 277.205 28.2655C277.377 28.1311 277.481 27.9584 277.481 27.7282C277.481 27.5171 277.377 27.3444 277.187 27.2101C277.049 27.1142 276.859 27.0566 276.635 27.0566H274.512C274.132 27.0566 273.805 26.9415 273.546 26.7112C273.252 26.4426 273.114 26.0972 273.114 25.675C273.114 25.2529 273.252 24.9267 273.546 24.658C273.805 24.4278 274.132 24.2935 274.512 24.2935H277.912V25.1761H274.512C274.374 25.1761 274.236 25.2145 274.132 25.3104C274.029 25.4064 273.977 25.5215 273.977 25.6942C273.977 25.8477 274.029 25.9629 274.132 26.0588C274.236 26.1547 274.374 26.1931 274.512 26.1931H276.635C277.084 26.1931 277.446 26.3274 277.722 26.6153C278.033 26.9031 278.188 27.2869 278.188 27.7666Z" fill="white"/>
<path d="M0 0.711182H13.0309L28.8578 29.3979H15.8097L0 0.711182Z" fill="white"/>
<path d="M15.3281 0.711182H28.3763L44.2032 29.3979H31.155L15.3281 0.711182Z" fill="white"/>
<path d="M30.6172 0.711182H59.7339L54.7114 9.46111H35.4326L30.6172 0.711182Z" fill="#B44843"/>
<path d="M48.241 20.744H41.5443L36.5391 11.6487H53.4533L48.241 20.744Z" fill="#B44843"/>
<path d="M72.7489 19.5158L62.3242 0.519188L65.8969 0.538377L73.7155 14.6035L75.7693 10.9769L70.0392 0.519188L73.5946 0.538377L81.2924 14.3924L88.9383 0.5L92.5628 0.519188C89.0246 6.90894 85.5382 13.2028 82.069 19.5158H80.5157L77.5471 14.2006C76.5115 16.0618 75.545 17.7888 74.5784 19.5158H72.7489Z" fill="#FEFEFE"/>
<path d="M84.8828 19.5149L95.3938 0.537499L112.929 0.518311L111.117 3.66522L110.513 3.64603H97.2406L90.1297 16.5023H103.937L102.263 19.5149H84.8828Z" fill="#FEFEFE"/>
<path d="M125.562 19.5158L136.004 0.5L139.612 0.519188L130.74 16.5224H144.203L142.373 19.5158H125.562Z" fill="#FEFEFE"/>
<path d="M105.645 19.5158L110.408 10.8234L115.724 1.20997L116.121 0.5L119.694 0.519188L110.857 16.5032H124.181L122.455 19.5158H105.645Z" fill="#FEFEFE"/>
<path d="M95.082 11.5525L96.6872 8.46313L108.199 8.50151L106.456 11.5717L95.082 11.5525Z" fill="#FEFEFE"/>
</svg>
